<mxfile host="app.diagrams.net" modified="2023-04-28T08:28:46.865Z" agent="Mozilla/5.0 (Windows NT 10.0; Win64; x64) AppleWebKit/537.36 (KHTML, like Gecko) Chrome/112.0.0.0 Safari/537.36" etag="q2kl5ZbGRDHGZWjXkIAB" version="21.2.3" type="github">
  <diagram id="C5RBs43oDa-KdzZeNtuy" name="Page-1">
    <mxGraphModel dx="1221" dy="668" grid="1" gridSize="10" guides="1" tooltips="1" connect="1" arrows="1" fold="1" page="1" pageScale="1" pageWidth="827" pageHeight="1169" math="0" shadow="0">
      <root>
        <mxCell id="WIyWlLk6GJQsqaUBKTNV-0" />
        <mxCell id="WIyWlLk6GJQsqaUBKTNV-1" parent="WIyWlLk6GJQsqaUBKTNV-0" />
        <mxCell id="WIyWlLk6GJQsqaUBKTNV-2" value="" style="rounded=0;html=1;jettySize=auto;orthogonalLoop=1;fontSize=11;endArrow=block;endFill=0;endSize=8;strokeWidth=1;shadow=0;labelBackgroundColor=none;edgeStyle=orthogonalEdgeStyle;" parent="WIyWlLk6GJQsqaUBKTNV-1" source="WIyWlLk6GJQsqaUBKTNV-3" edge="1">
          <mxGeometry relative="1" as="geometry">
            <mxPoint x="427.5" y="110" as="targetPoint" />
          </mxGeometry>
        </mxCell>
        <mxCell id="WIyWlLk6GJQsqaUBKTNV-3" value="เริ่มต้น" style="rounded=1;whiteSpace=wrap;html=1;fontSize=12;glass=0;strokeWidth=1;shadow=0;" parent="WIyWlLk6GJQsqaUBKTNV-1" vertex="1">
          <mxGeometry x="367.5" y="20" width="120" height="40" as="geometry" />
        </mxCell>
        <mxCell id="YJ9p6vgPoEFl2DIqnwbw-37" style="edgeStyle=orthogonalEdgeStyle;rounded=0;orthogonalLoop=1;jettySize=auto;html=1;entryX=0.5;entryY=0;entryDx=0;entryDy=0;" edge="1" parent="WIyWlLk6GJQsqaUBKTNV-1" source="YJ9p6vgPoEFl2DIqnwbw-1" target="YJ9p6vgPoEFl2DIqnwbw-2">
          <mxGeometry relative="1" as="geometry" />
        </mxCell>
        <mxCell id="YJ9p6vgPoEFl2DIqnwbw-1" value="ระบบจะแสดงรายละเอียดเที่ยวบินทั้งหมด" style="rounded=0;whiteSpace=wrap;html=1;" vertex="1" parent="WIyWlLk6GJQsqaUBKTNV-1">
          <mxGeometry x="367.5" y="110" width="120" height="60" as="geometry" />
        </mxCell>
        <mxCell id="YJ9p6vgPoEFl2DIqnwbw-5" value="" style="edgeStyle=orthogonalEdgeStyle;rounded=0;orthogonalLoop=1;jettySize=auto;html=1;" edge="1" parent="WIyWlLk6GJQsqaUBKTNV-1" source="YJ9p6vgPoEFl2DIqnwbw-2" target="YJ9p6vgPoEFl2DIqnwbw-4">
          <mxGeometry relative="1" as="geometry" />
        </mxCell>
        <mxCell id="YJ9p6vgPoEFl2DIqnwbw-17" value="" style="edgeStyle=orthogonalEdgeStyle;rounded=0;orthogonalLoop=1;jettySize=auto;html=1;" edge="1" parent="WIyWlLk6GJQsqaUBKTNV-1" source="YJ9p6vgPoEFl2DIqnwbw-2" target="YJ9p6vgPoEFl2DIqnwbw-16">
          <mxGeometry relative="1" as="geometry" />
        </mxCell>
        <mxCell id="YJ9p6vgPoEFl2DIqnwbw-2" value="ลูกค้าเลือกสายการบินที่ต้องการ" style="rhombus;whiteSpace=wrap;html=1;" vertex="1" parent="WIyWlLk6GJQsqaUBKTNV-1">
          <mxGeometry x="367.5" y="210" width="120" height="100" as="geometry" />
        </mxCell>
        <mxCell id="YJ9p6vgPoEFl2DIqnwbw-12" value="" style="edgeStyle=orthogonalEdgeStyle;rounded=0;orthogonalLoop=1;jettySize=auto;html=1;" edge="1" parent="WIyWlLk6GJQsqaUBKTNV-1" source="YJ9p6vgPoEFl2DIqnwbw-4" target="YJ9p6vgPoEFl2DIqnwbw-11">
          <mxGeometry relative="1" as="geometry" />
        </mxCell>
        <mxCell id="YJ9p6vgPoEFl2DIqnwbw-4" value="ระบบจะส่งข้อมูลการจองไปยังระบบการจองตั๋ว" style="whiteSpace=wrap;html=1;" vertex="1" parent="WIyWlLk6GJQsqaUBKTNV-1">
          <mxGeometry x="367.5" y="350" width="120" height="60" as="geometry" />
        </mxCell>
        <mxCell id="YJ9p6vgPoEFl2DIqnwbw-6" value="Yes" style="text;html=1;strokeColor=none;fillColor=none;align=center;verticalAlign=middle;whiteSpace=wrap;rounded=0;" vertex="1" parent="WIyWlLk6GJQsqaUBKTNV-1">
          <mxGeometry x="417.5" y="310" width="60" height="30" as="geometry" />
        </mxCell>
        <mxCell id="YJ9p6vgPoEFl2DIqnwbw-15" value="" style="edgeStyle=orthogonalEdgeStyle;rounded=0;orthogonalLoop=1;jettySize=auto;html=1;" edge="1" parent="WIyWlLk6GJQsqaUBKTNV-1" source="YJ9p6vgPoEFl2DIqnwbw-11" target="YJ9p6vgPoEFl2DIqnwbw-14">
          <mxGeometry relative="1" as="geometry" />
        </mxCell>
        <mxCell id="YJ9p6vgPoEFl2DIqnwbw-31" value="" style="edgeStyle=orthogonalEdgeStyle;rounded=0;orthogonalLoop=1;jettySize=auto;html=1;" edge="1" parent="WIyWlLk6GJQsqaUBKTNV-1" source="YJ9p6vgPoEFl2DIqnwbw-11" target="YJ9p6vgPoEFl2DIqnwbw-30">
          <mxGeometry relative="1" as="geometry" />
        </mxCell>
        <mxCell id="YJ9p6vgPoEFl2DIqnwbw-11" value="ระบบจองตั๋วจะตรวจสอบความพร้อมของเที่ยวบินและสถานะการจอง" style="rhombus;whiteSpace=wrap;html=1;" vertex="1" parent="WIyWlLk6GJQsqaUBKTNV-1">
          <mxGeometry x="350" y="470" width="155" height="80" as="geometry" />
        </mxCell>
        <mxCell id="YJ9p6vgPoEFl2DIqnwbw-41" style="edgeStyle=orthogonalEdgeStyle;rounded=0;orthogonalLoop=1;jettySize=auto;html=1;entryX=1;entryY=0.75;entryDx=0;entryDy=0;" edge="1" parent="WIyWlLk6GJQsqaUBKTNV-1" source="YJ9p6vgPoEFl2DIqnwbw-14" target="WIyWlLk6GJQsqaUBKTNV-3">
          <mxGeometry relative="1" as="geometry">
            <mxPoint x="750" y="40" as="targetPoint" />
            <Array as="points">
              <mxPoint x="700" y="510" />
              <mxPoint x="700" y="50" />
            </Array>
          </mxGeometry>
        </mxCell>
        <mxCell id="YJ9p6vgPoEFl2DIqnwbw-14" value="ยกเลิกการจองเดิมและทำการจองใหม่ตามที่ต้องการ" style="whiteSpace=wrap;html=1;" vertex="1" parent="WIyWlLk6GJQsqaUBKTNV-1">
          <mxGeometry x="560" y="460" width="120" height="100" as="geometry" />
        </mxCell>
        <mxCell id="YJ9p6vgPoEFl2DIqnwbw-16" value="เลือกการเดินทางอื่น" style="whiteSpace=wrap;html=1;" vertex="1" parent="WIyWlLk6GJQsqaUBKTNV-1">
          <mxGeometry x="547.5" y="230" width="122.5" height="60" as="geometry" />
        </mxCell>
        <mxCell id="YJ9p6vgPoEFl2DIqnwbw-22" value="Yes" style="text;html=1;strokeColor=none;fillColor=none;align=center;verticalAlign=middle;whiteSpace=wrap;rounded=0;" vertex="1" parent="WIyWlLk6GJQsqaUBKTNV-1">
          <mxGeometry x="417.5" y="550" width="60" height="30" as="geometry" />
        </mxCell>
        <mxCell id="YJ9p6vgPoEFl2DIqnwbw-23" value="No" style="text;html=1;strokeColor=none;fillColor=none;align=center;verticalAlign=middle;whiteSpace=wrap;rounded=0;" vertex="1" parent="WIyWlLk6GJQsqaUBKTNV-1">
          <mxGeometry x="487.5" y="230" width="60" height="30" as="geometry" />
        </mxCell>
        <mxCell id="YJ9p6vgPoEFl2DIqnwbw-24" value="No" style="text;html=1;strokeColor=none;fillColor=none;align=center;verticalAlign=middle;whiteSpace=wrap;rounded=0;" vertex="1" parent="WIyWlLk6GJQsqaUBKTNV-1">
          <mxGeometry x="500" y="480" width="60" height="30" as="geometry" />
        </mxCell>
        <mxCell id="YJ9p6vgPoEFl2DIqnwbw-39" value="" style="edgeStyle=orthogonalEdgeStyle;rounded=0;orthogonalLoop=1;jettySize=auto;html=1;" edge="1" parent="WIyWlLk6GJQsqaUBKTNV-1" source="YJ9p6vgPoEFl2DIqnwbw-30" target="YJ9p6vgPoEFl2DIqnwbw-38">
          <mxGeometry relative="1" as="geometry" />
        </mxCell>
        <mxCell id="YJ9p6vgPoEFl2DIqnwbw-30" value="ระบบจะออกตั๋วและส่งใบเสร็จกลับไปยังลูกค้า" style="whiteSpace=wrap;html=1;" vertex="1" parent="WIyWlLk6GJQsqaUBKTNV-1">
          <mxGeometry x="367.5" y="590" width="120" height="60" as="geometry" />
        </mxCell>
        <mxCell id="YJ9p6vgPoEFl2DIqnwbw-47" value="" style="edgeStyle=orthogonalEdgeStyle;rounded=0;orthogonalLoop=1;jettySize=auto;html=1;" edge="1" parent="WIyWlLk6GJQsqaUBKTNV-1" source="YJ9p6vgPoEFl2DIqnwbw-38" target="YJ9p6vgPoEFl2DIqnwbw-46">
          <mxGeometry relative="1" as="geometry" />
        </mxCell>
        <mxCell id="YJ9p6vgPoEFl2DIqnwbw-38" value="ลูกค้าสามารถเลือกที่นั่งที่ต้องการบนเครื่องบิน" style="whiteSpace=wrap;html=1;" vertex="1" parent="WIyWlLk6GJQsqaUBKTNV-1">
          <mxGeometry x="367.5" y="690" width="120" height="60" as="geometry" />
        </mxCell>
        <mxCell id="YJ9p6vgPoEFl2DIqnwbw-46" value="สิ้นสุด" style="rounded=1;whiteSpace=wrap;html=1;" vertex="1" parent="WIyWlLk6GJQsqaUBKTNV-1">
          <mxGeometry x="367.5" y="800" width="120" height="60" as="geometry" />
        </mxCell>
      </root>
    </mxGraphModel>
  </diagram>
</mxfile>
